<?xml version="1.0" encoding="UTF-8"?>
<svg id="Layer_1" data-name="Layer 1" xmlns="http://www.w3.org/2000/svg" viewBox="0 0 321.7 360">
  <defs>
    <style>
      .cls-1 {
        fill: #010101;
      }

      .cls-2 {
        fill: #9d7460;
      }

      .cls-3 {
        fill: #d8e9f2;
      }

      .cls-4 {
        fill: #d8cbe0;
      }

      .cls-5 {
        fill: #1e130e;
      }

      .cls-6 {
        fill: #42291b;
      }

      .cls-7 {
        fill: #432a16;
      }

      .cls-8 {
        fill: #1b120e;
      }

      .cls-9 {
        fill: #291810;
      }

      .cls-10 {
        fill: #2d1b13;
      }

      .cls-11 {
        fill: #2f4149;
      }

      .cls-12 {
        fill: #321d13;
      }

      .cls-13 {
        fill: #5d5b50;
      }

      .cls-14 {
        fill: #281f1b;
      }

      .cls-15 {
        fill: #4f3223;
      }
    </style>
  </defs>
  <path class="cls-7" d="M268.07,195.33v-15.33h-15.32v-7.66h-7.66v-7.66h-30.63v-7.66H107.23v7.66h-30.63v7.66h-7.66v7.66h-15.33v15.33H15.32v45.96h22.98v7.66h7.66v22.98h7.66v7.66h30.63v7.66H237.44v-7.66h30.63v-7.66h7.67v-22.98h7.66v-7.66h22.98v-45.96h-38.31Z"/>
  <g>
    <polygon class="cls-4" points="237.44 248.94 237.44 256.6 229.78 256.6 229.78 264.26 222.12 264.26 222.12 248.94 237.44 248.94"/>
    <polygon class="cls-4" points="99.58 248.94 99.58 264.26 91.91 264.26 91.91 256.6 84.25 256.6 84.25 248.94 99.58 248.94"/>
  </g>
  <g>
    <rect class="cls-3" x="214.47" y="241.28" width="7.66" height="7.66" transform="translate(436.59 490.23) rotate(-180)"/>
    <rect class="cls-3" x="99.57" y="241.28" width="7.66" height="7.66"/>
  </g>
  <g>
    <polygon class="cls-11" points="222.12 187.66 222.12 241.29 214.47 241.29 214.47 248.94 199.15 248.94 199.15 187.66 222.12 187.66"/>
    <polygon class="cls-11" points="122.55 187.66 122.55 248.94 107.23 248.94 107.23 241.29 99.58 241.29 99.58 187.66 122.55 187.66"/>
  </g>
  <g>
    <polygon class="cls-13" points="245.1 187.66 245.1 248.94 222.12 248.94 222.12 187.66 199.15 187.66 199.15 248.94 222.12 248.94 222.12 264.26 183.82 264.26 183.82 256.6 176.17 256.6 176.17 187.66 183.82 187.66 183.82 172.34 237.44 172.34 237.44 187.66 245.1 187.66"/>
    <path class="cls-13" d="M84.25,187.66h-7.65v61.28h22.97v-61.28h22.97v61.28h-22.97v15.32h38.29v-7.66h7.67v-68.94h-7.67v-15.32h-53.62v15.32h0"/>
  </g>
  <g>
    <rect class="cls-1" x="237.44" y="172.34" width="7.66" height="15.32"/>
    <rect class="cls-1" x="214.47" y="164.69" width="15.32" height="7.66"/>
    <rect class="cls-1" x="191.49" y="164.69" width="15.32" height="7.66"/>
    <rect class="cls-1" x="283.4" y="210.65" width="7.66" height="7.66" transform="translate(574.45 428.95) rotate(-180)"/>
    <rect class="cls-1" x="291.06" y="218.3" width="7.66" height="7.66" transform="translate(589.77 444.27) rotate(-180)"/>
    <rect class="cls-1" x="275.74" y="187.66" width="30.64" height="7.67"/>
    <rect class="cls-1" x="260.41" y="187.66" width="7.66" height="15.33"/>
    <rect class="cls-1" x="306.38" y="195.33" width="7.66" height="45.96"/>
    <rect class="cls-1" x="275.74" y="248.94" width="7.66" height="22.98"/>
    <rect class="cls-1" x="260.41" y="271.93" width="15.33" height="7.66"/>
    <rect class="cls-1" x="283.4" y="241.29" width="22.98" height="7.66"/>
    <rect class="cls-1" x="237.44" y="279.58" width="22.97" height="7.66"/>
    <rect class="cls-1" x="245.1" y="187.66" width="7.66" height="68.94"/>
    <polygon class="cls-1" points="245.1 256.6 245.1 264.26 237.44 264.26 237.44 271.93 183.82 271.93 183.82 264.26 229.78 264.26 229.78 256.6 245.1 256.6"/>
    <rect class="cls-1" x="283.4" y="210.65" width="7.66" height="7.66" transform="translate(574.45 428.95) rotate(-180)"/>
    <rect class="cls-1" x="291.06" y="218.3" width="7.66" height="7.66" transform="translate(589.77 444.27) rotate(-180)"/>
    <rect class="cls-1" x="76.6" y="172.34" width="7.66" height="15.32"/>
    <rect class="cls-1" x="91.91" y="164.69" width="15.33" height="7.66"/>
    <rect class="cls-1" x="114.89" y="164.69" width="15.32" height="7.66"/>
    <polygon class="cls-1" points="183.82 172.34 183.82 187.66 176.17 187.66 176.17 256.6 183.82 256.6 183.82 264.26 168.51 264.26 168.51 233.63 153.19 233.63 153.19 264.26 137.87 264.26 137.87 256.6 145.53 256.6 145.53 187.66 137.87 187.66 137.87 172.34 145.53 172.34 145.53 180 153.19 180 153.19 218.3 168.51 218.3 168.51 180 176.17 180 176.17 172.34 183.82 172.34"/>
    <rect class="cls-1" x="30.64" y="210.65" width="7.66" height="7.66"/>
    <rect class="cls-1" x="22.98" y="218.3" width="7.66" height="7.66"/>
    <rect class="cls-1" x="7.66" y="195.33" width="7.66" height="45.96"/>
    <rect class="cls-1" x="15.32" y="241.29" width="22.98" height="7.66"/>
    <rect class="cls-1" x="15.32" y="187.66" width="30.64" height="7.67"/>
    <rect class="cls-1" x="38.3" y="248.94" width="7.66" height="22.98"/>
    <rect class="cls-1" x="53.62" y="187.66" width="7.67" height="15.33"/>
    <rect class="cls-1" x="68.94" y="187.66" width="7.66" height="68.94"/>
    <polygon class="cls-1" points="137.87 264.26 137.87 271.93 84.25 271.93 84.25 264.26 76.6 264.26 76.6 256.6 91.92 256.6 91.92 264.26 137.87 264.26"/>
    <rect class="cls-1" x="45.96" y="271.93" width="15.33" height="7.66"/>
    <rect class="cls-1" x="84.25" y="287.24" width="153.19" height="7.66"/>
    <rect class="cls-1" x="61.29" y="279.58" width="22.97" height="7.66"/>
    <rect class="cls-1" x="30.64" y="210.65" width="7.66" height="7.66"/>
    <rect class="cls-1" x="22.98" y="218.3" width="7.66" height="7.66"/>
  </g>
  <g>
    <g>
      <g>
        <rect class="cls-9" x="291.06" y="248.94" width="7.66" height="30.63"/>
        <rect class="cls-9" x="22.98" y="248.94" width="7.67" height="30.63"/>
      </g>
      <g>
        <rect class="cls-9" x="268.07" y="279.57" width="7.67" height="7.67"/>
        <rect class="cls-9" x="214.47" y="294.9" width="7.66" height="7.66"/>
        <rect class="cls-9" x="245.1" y="287.24" width="7.66" height="15.32"/>
        <rect class="cls-9" x="45.96" y="279.57" width="7.66" height="7.67"/>
        <rect class="cls-9" x="99.58" y="294.9" width="7.66" height="7.66"/>
        <rect class="cls-9" x="68.94" y="287.24" width="7.67" height="15.32"/>
      </g>
      <g>
        <polygon class="cls-9" points="314.05 172.35 314.05 180.01 306.39 180.01 298.72 180 298.72 187.66 275.75 187.66 275.75 195.31 298.72 195.31 298.72 202.97 283.4 202.97 283.4 218.3 291.06 218.3 291.06 225.96 283.4 225.96 283.4 233.61 275.75 233.61 275.75 218.3 268.08 218.3 268.08 210.64 260.42 210.64 260.42 233.61 252.76 233.61 252.76 187.66 245.1 187.66 245.1 164.68 237.45 164.68 237.45 225.96 229.79 225.96 229.79 164.68 214.47 164.68 214.47 172.34 206.81 172.34 206.81 157.02 191.5 157.02 191.5 195.31 183.83 195.31 183.83 157.02 137.87 157.02 137.87 195.31 130.21 195.31 130.21 157.02 114.9 157.02 114.9 172.34 107.24 172.34 107.24 164.68 91.92 164.68 91.92 225.96 84.26 225.96 84.26 164.68 76.6 164.68 76.6 180 76.61 180 76.61 187.66 68.95 187.66 68.95 233.61 61.29 233.61 61.29 210.64 53.62 210.64 53.62 218.3 45.97 218.3 45.97 233.61 38.31 233.61 38.31 225.96 30.65 225.96 30.65 218.3 38.31 218.3 38.31 202.97 22.98 202.97 22.98 195.31 45.97 195.31 45.97 187.66 22.98 187.66 22.98 180 15.32 180 15.32 180.01 7.67 180.01 7.67 187.67 0 187.67 0 180.01 7.66 180.01 7.66 172.35 15.32 172.35 15.33 172.34 15.32 172.34 15.32 164.68 22.98 164.68 22.98 149.37 38.31 149.37 38.31 134.05 30.65 134.05 30.65 141.71 15.32 141.71 15.32 134.05 22.98 134.05 22.98 118.73 30.64 118.73 30.64 111.07 38.3 111.07 38.3 103.41 45.96 103.41 45.96 95.75 53.62 95.75 53.62 88.09 61.28 88.09 61.28 80.44 68.94 80.43 68.94 72.78 76.6 72.78 76.6 65.11 107.24 65.11 107.24 72.78 114.89 72.78 114.89 65.11 122.55 65.11 122.56 57.44 153.19 57.44 153.2 65.11 168.51 65.11 168.51 57.44 199.16 57.44 199.16 65.11 206.8 65.11 206.8 72.78 214.46 72.78 214.46 65.11 245.1 65.11 245.1 72.78 252.76 72.78 252.76 80.44 260.42 80.44 260.42 88.09 268.08 88.09 268.08 95.75 275.75 95.75 275.75 103.41 283.4 103.41 283.4 111.07 291.06 111.07 291.06 118.73 298.72 118.73 298.72 134.05 306.39 134.05 306.39 141.71 291.06 141.71 291.06 134.05 283.4 134.05 283.4 149.37 298.73 149.37 298.73 164.68 306.39 164.68 306.39 172.34 306.38 172.34 306.39 172.35 314.05 172.35"/>
        <rect class="cls-9" x="314.05" y="180.01" width="7.66" height="7.66"/>
      </g>
    </g>
    <g>
      <rect class="cls-8" x="283.4" y="180" width="7.66" height="7.66" transform="translate(574.45 367.66) rotate(-180)"/>
      <polygon class="cls-8" points="283.4 149.37 283.4 157.03 268.07 157.03 268.07 134.05 275.74 134.05 275.74 149.37 283.4 149.37"/>
      <rect class="cls-8" x="252.76" y="141.71" width="7.66" height="7.66" transform="translate(513.18 291.08) rotate(-180)"/>
      <rect class="cls-8" x="245.1" y="134.05" width="7.66" height="7.66" transform="translate(497.86 275.76) rotate(-180)"/>
      <rect class="cls-8" x="222.13" y="134.05" width="7.66" height="15.32"/>
      <rect class="cls-8" x="199.15" y="134.05" width="7.66" height="7.66" transform="translate(405.96 275.76) rotate(-180)"/>
      <rect class="cls-8" x="214.47" y="103.41" width="7.66" height="22.98"/>
      <rect class="cls-8" x="191.49" y="111.07" width="7.66" height="7.66" transform="translate(390.64 229.8) rotate(-180)"/>
      <rect class="cls-8" x="168.51" y="141.71" width="7.66" height="7.66" transform="translate(344.68 291.08) rotate(-180)"/>
      <polygon class="cls-8" points="53.62 134.05 53.62 157.03 38.3 157.03 38.3 149.37 45.96 149.37 45.96 134.05 53.62 134.05"/>
      <rect class="cls-8" x="30.65" y="180" width="7.66" height="7.66"/>
      <rect class="cls-8" x="61.28" y="141.71" width="7.66" height="7.66"/>
      <rect class="cls-8" x="68.94" y="134.05" width="7.66" height="7.66"/>
      <rect class="cls-8" x="91.91" y="134.05" width="7.67" height="15.32"/>
      <rect class="cls-8" x="114.89" y="134.05" width="7.66" height="7.66"/>
      <rect class="cls-8" x="99.58" y="103.41" width="7.66" height="22.98"/>
      <rect class="cls-8" x="122.55" y="111.07" width="7.66" height="7.66"/>
      <rect class="cls-8" x="145.53" y="141.71" width="7.66" height="7.66"/>
    </g>
    <g>
      <rect class="cls-12" x="283.4" y="172.34" width="7.66" height="7.66" transform="translate(574.45 352.34) rotate(-180)"/>
      <rect class="cls-12" x="268.07" y="118.73" width="7.67" height="15.33"/>
      <rect class="cls-12" x="291.06" y="264.26" width="7.66" height="15.32"/>
      <rect class="cls-12" x="245.1" y="294.9" width="7.66" height="7.66"/>
      <rect class="cls-12" x="260.42" y="103.41" width="7.66" height="15.32"/>
      <rect class="cls-12" x="245.1" y="141.71" width="7.66" height="7.66" transform="translate(497.86 291.08) rotate(-180)"/>
      <polygon class="cls-12" points="252.76 126.39 252.76 134.05 237.44 134.05 237.44 118.73 245.1 118.73 245.1 126.39 252.76 126.39"/>
      <rect class="cls-12" x="183.83" y="103.41" width="15.33" height="7.66"/>
      <rect class="cls-12" x="168.51" y="134.05" width="7.66" height="7.66" transform="translate(344.68 275.76) rotate(-180)"/>
      <polygon class="cls-12" points="252.76 95.75 252.76 103.41 245.1 103.41 245.1 111.07 237.44 111.07 237.44 95.75 252.76 95.75"/>
      <polygon class="cls-12" points="237.44 95.75 229.78 95.75 229.78 88.09 214.47 88.09 214.47 95.75 222.13 95.75 222.13 103.41 206.81 103.41 206.81 95.75 176.17 95.75 176.17 88.09 206.81 88.09 206.81 80.44 237.44 80.44 237.44 95.75"/>
      <polygon class="cls-12" points="68.94 95.75 68.94 103.41 76.6 103.41 76.6 111.07 84.26 111.07 84.26 95.75 68.94 95.75"/>
      <polygon class="cls-12" points="84.26 95.75 91.92 95.75 91.92 88.09 107.23 88.09 107.23 95.75 99.57 95.75 99.57 103.41 114.89 103.41 114.89 95.75 145.53 95.75 145.53 88.09 114.89 88.09 114.89 80.44 84.26 80.44 84.26 95.75"/>
      <rect class="cls-12" x="176.17" y="65.11" width="22.98" height="7.67"/>
      <rect class="cls-12" x="30.65" y="172.34" width="7.66" height="7.66"/>
      <rect class="cls-12" x="53.62" y="103.41" width="7.67" height="15.32"/>
      <rect class="cls-12" x="45.96" y="118.73" width="7.66" height="15.33"/>
      <rect class="cls-12" x="22.98" y="264.26" width="7.67" height="15.32"/>
      <rect class="cls-12" x="68.94" y="294.9" width="7.67" height="7.66"/>
      <rect class="cls-12" x="68.94" y="141.71" width="7.67" height="7.66"/>
      <polygon class="cls-12" points="84.26 118.73 84.26 134.05 68.94 134.05 68.94 126.39 76.6 126.39 76.6 118.73 84.26 118.73"/>
      <rect class="cls-12" x="145.53" y="134.05" width="7.66" height="7.66"/>
      <rect class="cls-12" x="122.55" y="103.41" width="15.32" height="7.66"/>
      <rect class="cls-12" x="122.55" y="65.11" width="22.98" height="7.67"/>
    </g>
    <g>
      <rect class="cls-5" x="275.74" y="126.39" width="7.66" height="7.66" transform="translate(559.14 260.44) rotate(-180)"/>
      <polygon class="cls-5" points="268.07 118.73 268.07 134.05 260.42 134.05 260.42 126.39 252.76 126.39 252.76 118.73 245.1 118.73 245.1 103.41 252.76 103.41 252.76 111.07 260.42 111.07 260.42 118.73 268.07 118.73"/>
      <polygon class="cls-5" points="283.4 157.03 283.4 180 275.74 180 275.74 164.68 268.07 164.68 268.07 157.03 283.4 157.03"/>
      <rect class="cls-5" x="291.06" y="248.94" width="7.66" height="7.66"/>
      <polygon class="cls-5" points="260.42 164.68 268.07 164.68 268.07 172.34 252.76 172.34 252.76 149.37 260.42 149.37 260.42 164.68"/>
      <rect class="cls-5" x="237.44" y="141.71" width="7.66" height="15.32"/>
      <polygon class="cls-5" points="229.78 149.37 229.78 157.03 214.47 157.03 214.47 126.39 222.13 126.39 222.13 149.37 229.78 149.37"/>
      <polygon class="cls-5" points="206.81 141.71 206.81 157.03 199.15 157.03 199.15 149.37 191.49 149.37 191.49 118.73 199.15 118.73 199.15 141.71 206.81 141.71"/>
      <rect class="cls-5" x="237.44" y="88.09" width="7.66" height="7.66" transform="translate(482.55 183.85) rotate(-180)"/>
      <rect class="cls-5" x="38.3" y="126.39" width="7.66" height="7.66"/>
      <rect class="cls-5" x="22.98" y="248.94" width="7.67" height="7.66"/>
      <polygon class="cls-5" points="53.62 157.03 53.62 164.68 45.96 164.68 45.96 180 38.3 180 38.3 157.03 53.62 157.03"/>
      <polygon class="cls-5" points="68.95 149.37 68.95 172.34 53.62 172.34 53.62 164.68 61.29 164.68 61.29 149.37 68.95 149.37"/>
      <polygon class="cls-5" points="76.6 103.41 76.6 118.73 68.95 118.73 68.95 126.39 61.29 126.39 61.29 134.05 53.62 134.05 53.62 118.73 61.29 118.73 61.29 111.07 68.94 111.07 68.94 103.41 76.6 103.41"/>
      <polygon class="cls-5" points="130.21 118.73 130.21 149.37 122.55 149.37 122.55 157.03 114.89 157.03 114.89 141.71 122.55 141.71 122.55 118.73 130.21 118.73"/>
      <rect class="cls-5" x="76.6" y="141.71" width="7.67" height="15.32"/>
      <polygon class="cls-5" points="107.24 126.39 107.24 157.03 91.91 157.03 91.91 149.37 99.58 149.37 99.58 126.39 107.24 126.39"/>
      <rect class="cls-5" x="76.6" y="88.09" width="7.66" height="7.66"/>
      <polygon class="cls-5" points="199.15 72.78 199.15 88.09 168.51 88.09 168.51 111.07 191.49 111.07 191.49 118.73 168.51 118.73 168.51 149.37 153.19 149.37 153.19 118.73 130.21 118.73 130.21 111.07 153.19 111.07 153.19 88.09 122.55 88.09 122.55 72.78 130.21 72.78 130.21 80.44 153.19 80.44 153.19 72.78 168.51 72.78 168.51 80.44 191.49 80.44 191.49 72.78 199.15 72.78"/>
    </g>
    <g>
      <rect class="cls-9" x="291.06" y="256.6" width="7.66" height="7.66"/>
      <rect class="cls-9" x="268.07" y="279.57" width="7.67" height="7.67"/>
      <rect class="cls-9" x="214.47" y="294.9" width="7.66" height="7.66"/>
      <rect class="cls-9" x="245.1" y="287.24" width="7.66" height="7.66"/>
      <polygon class="cls-9" points="268.07 134.05 268.07 149.37 260.42 149.37 260.42 141.71 252.76 141.71 252.76 126.39 260.42 126.39 260.42 134.05 268.07 134.05"/>
      <rect class="cls-9" x="245.1" y="118.73" width="7.66" height="7.67"/>
      <rect class="cls-9" x="237.44" y="111.07" width="7.66" height="7.66"/>
      <rect class="cls-9" x="206.81" y="103.41" width="7.66" height="7.66"/>
      <rect class="cls-9" x="229.78" y="95.75" width="7.66" height="7.66"/>
      <rect class="cls-9" x="199.15" y="72.78" width="7.66" height="15.32"/>
      <polygon class="cls-9" points="191.49 118.73 191.49 126.39 176.17 126.39 176.17 134.05 168.51 134.05 168.51 118.73 191.49 118.73"/>
      <polygon class="cls-9" points="183.83 103.41 183.83 111.07 168.51 111.07 168.51 88.09 176.17 88.09 176.17 103.41 183.83 103.41"/>
      <polygon class="cls-9" points="191.49 72.78 191.49 80.44 168.51 80.44 168.51 65.11 176.17 65.11 176.17 72.78 191.49 72.78"/>
      <polygon class="cls-9" points="268.07 95.75 268.07 103.41 260.42 103.41 260.42 111.07 252.76 111.07 252.76 95.75 245.1 95.75 245.1 88.09 237.44 88.09 237.44 80.44 214.47 80.44 214.47 72.78 245.1 72.78 245.1 80.44 252.76 80.44 252.76 88.09 260.42 88.09 260.42 95.75 268.07 95.75"/>
      <polygon class="cls-9" points="68.95 126.39 68.95 141.71 61.29 141.71 61.29 149.37 53.62 149.37 53.62 134.05 61.29 134.05 61.29 126.39 68.95 126.39"/>
      <rect class="cls-9" x="22.98" y="256.6" width="7.67" height="7.66"/>
      <rect class="cls-9" x="45.96" y="279.57" width="7.66" height="7.67"/>
      <rect class="cls-9" x="99.58" y="294.9" width="7.66" height="7.66"/>
      <rect class="cls-9" x="68.94" y="287.24" width="7.67" height="7.66"/>
      <polygon class="cls-9" points="107.24 72.78 107.24 80.44 84.26 80.44 84.26 88.09 76.6 88.09 76.6 95.75 68.95 95.75 68.95 111.07 61.29 111.07 61.29 103.41 53.62 103.41 53.62 95.75 61.29 95.75 61.29 88.09 68.94 88.09 68.94 80.44 76.6 80.44 76.6 72.78 107.24 72.78"/>
      <polygon class="cls-9" points="84.26 111.07 84.26 118.73 76.6 118.73 76.6 126.39 68.94 126.39 68.94 118.73 76.6 118.73 76.6 111.07 84.26 111.07"/>
      <rect class="cls-9" x="107.23" y="103.41" width="7.66" height="7.66"/>
      <rect class="cls-9" x="84.26" y="95.75" width="7.66" height="7.66"/>
      <rect class="cls-9" x="114.89" y="72.78" width="7.66" height="15.32"/>
      <polygon class="cls-9" points="153.19 118.73 153.19 134.05 145.54 134.05 145.54 126.39 130.21 126.39 130.21 118.73 153.19 118.73"/>
      <polygon class="cls-9" points="153.19 88.09 153.19 111.07 137.87 111.07 137.87 103.41 145.54 103.41 145.54 88.09 153.19 88.09"/>
      <polygon class="cls-9" points="153.19 65.11 153.19 80.44 130.21 80.44 130.21 72.78 145.54 72.78 145.54 65.11 153.19 65.11"/>
    </g>
    <g>
      <rect class="cls-6" x="275.74" y="134.05" width="7.66" height="15.32"/>
      <polygon class="cls-6" points="298.72 164.68 298.72 180 291.06 180 291.06 172.34 283.4 172.34 283.4 149.37 291.06 149.37 291.06 164.68 298.72 164.68"/>
      <rect class="cls-6" x="275.74" y="118.73" width="7.66" height="7.66" transform="translate(559.14 245.12) rotate(-180)"/>
      <rect class="cls-6" x="268.08" y="111.07" width="7.66" height="7.66" transform="translate(543.82 229.8) rotate(-180)"/>
      <rect class="cls-6" x="268.07" y="164.68" width="7.67" height="15.32"/>
      <rect class="cls-6" x="260.42" y="149.37" width="7.66" height="15.32"/>
      <rect class="cls-6" x="237.44" y="134.05" width="7.66" height="7.66" transform="translate(482.55 275.76) rotate(-180)"/>
      <rect class="cls-6" x="206.81" y="111.07" width="7.66" height="45.96"/>
      <polygon class="cls-6" points="206.81 95.75 206.81 111.07 199.15 111.07 199.15 103.41 176.17 103.41 176.17 95.75 206.81 95.75"/>
      <rect class="cls-6" x="229.78" y="103.41" width="7.66" height="15.32"/>
      <polygon class="cls-6" points="229.78 88.09 229.78 103.41 222.13 103.41 222.13 95.75 214.47 95.75 214.47 88.09 229.78 88.09"/>
      <polygon class="cls-6" points="260.42 172.34 260.42 187.66 252.76 187.66 252.76 180 245.1 180 245.1 149.37 252.76 149.37 252.76 172.34 260.42 172.34"/>
      <polygon class="cls-6" points="61.28 172.34 61.28 187.66 68.94 187.66 68.94 180 76.6 180 76.6 149.37 68.94 149.37 68.94 172.34 61.28 172.34"/>
      <polygon class="cls-6" points="191.49 126.39 191.49 157.03 183.83 157.03 183.83 134.05 176.17 134.05 176.17 126.39 191.49 126.39"/>
      <rect class="cls-6" x="283.4" y="126.39" width="7.66" height="7.66"/>
      <rect class="cls-6" x="38.3" y="134.05" width="7.66" height="15.32"/>
      <polygon class="cls-6" points="30.65 149.37 38.3 149.37 38.3 172.34 30.65 172.34 30.65 180 22.98 180 22.98 164.68 30.65 164.68 30.65 149.37"/>
      <rect class="cls-6" x="38.3" y="118.73" width="7.66" height="7.66"/>
      <rect class="cls-6" x="45.96" y="111.07" width="7.66" height="7.66"/>
      <rect class="cls-6" x="45.96" y="164.68" width="7.66" height="15.32"/>
      <rect class="cls-6" x="53.62" y="149.37" width="7.67" height="15.32"/>
      <rect class="cls-6" x="76.6" y="134.05" width="7.66" height="7.66"/>
      <rect class="cls-6" x="107.24" y="111.07" width="7.66" height="45.96"/>
      <rect class="cls-6" x="84.25" y="103.41" width="7.67" height="15.32"/>
      <polygon class="cls-6" points="107.24 88.09 107.24 95.75 99.58 95.75 99.58 103.41 91.91 103.41 91.91 88.09 107.24 88.09"/>
      <rect class="cls-6" x="68.94" y="172.34" width="0" height="7.66"/>
      <rect class="cls-6" x="68.94" y="172.34" width="0" height="7.66"/>
      <polygon class="cls-6" points="145.54 126.39 145.54 134.05 137.87 134.05 137.87 157.03 130.21 157.03 130.21 126.39 145.54 126.39"/>
      <polygon class="cls-6" points="145.54 95.75 145.54 103.41 122.55 103.41 122.55 111.07 114.89 111.07 114.89 95.75 145.54 95.75"/>
      <rect class="cls-6" x="30.65" y="126.39" width="7.66" height="7.66"/>
    </g>
    <g>
      <rect class="cls-15" x="275.74" y="111.07" width="7.66" height="7.66"/>
      <rect class="cls-15" x="291.06" y="180" width="7.66" height="7.66" transform="translate(589.78 367.66) rotate(-180)"/>
      <rect class="cls-15" x="268.07" y="103.41" width="7.67" height="7.66"/>
      <polygon class="cls-15" points="283.4 202.98 283.4 233.62 275.74 233.62 275.74 218.3 268.07 218.3 268.07 180 275.74 180 275.74 202.98 283.4 202.98"/>
      <rect class="cls-15" x="252.76" y="187.66" width="7.66" height="45.96"/>
      <rect class="cls-15" x="199.15" y="111.07" width="7.66" height="22.98"/>
      <polygon class="cls-15" points="237.44 118.73 237.44 225.96 229.78 225.96 229.78 134.05 222.13 134.05 222.13 103.41 229.78 103.41 229.78 118.73 237.44 118.73"/>
      <rect class="cls-15" x="206.81" y="157.03" width="7.66" height="15.32"/>
      <rect class="cls-15" x="183.83" y="157.03" width="7.67" height="38.29"/>
      <rect class="cls-15" x="245.1" y="180" width="7.66" height="7.66" transform="translate(497.86 367.66) rotate(-180)"/>
      <rect class="cls-15" x="176.17" y="134.05" width="7.66" height="15.32"/>
      <rect class="cls-15" x="291.06" y="134.05" width="7.66" height="7.66"/>
      <rect class="cls-15" x="298.72" y="172.34" width="7.66" height="7.66"/>
      <rect class="cls-15" x="38.3" y="111.07" width="7.66" height="7.66"/>
      <rect class="cls-15" x="22.98" y="180" width="7.66" height="7.66"/>
      <rect class="cls-15" x="45.96" y="103.41" width="7.66" height="7.66"/>
      <polygon class="cls-15" points="53.62 180 53.62 218.3 45.96 218.3 45.96 233.62 38.3 233.62 38.3 202.98 45.96 202.98 45.96 180 53.62 180"/>
      <rect class="cls-15" x="114.89" y="111.07" width="7.66" height="22.98"/>
      <rect class="cls-15" x="107.24" y="157.03" width="7.66" height="15.32"/>
      <rect class="cls-15" x="130.21" y="157.03" width="7.66" height="38.29"/>
      <polygon class="cls-15" points="99.58 103.41 99.58 134.05 91.92 134.05 91.92 225.96 84.25 225.96 84.25 118.73 91.91 118.73 91.92 118.73 91.91 118.73 91.91 103.41 99.58 103.41"/>
      <rect class="cls-15" x="68.94" y="180" width="7.67" height="7.66"/>
      <rect class="cls-15" x="61.29" y="187.66" width="7.66" height="45.96"/>
      <rect class="cls-15" x="137.87" y="134.05" width="7.67" height="15.32"/>
      <rect class="cls-15" x="22.98" y="134.05" width="7.67" height="7.66"/>
      <rect class="cls-15" x="15.32" y="172.34" width="7.66" height="7.66"/>
    </g>
    <g>
      <rect class="cls-2" x="283.4" y="248.94" width="7.66" height="7.66"/>
      <rect class="cls-2" x="275.74" y="233.62" width="7.66" height="15.33"/>
      <rect class="cls-2" x="268.08" y="218.3" width="7.66" height="7.66" transform="translate(543.82 444.26) rotate(-180)"/>
      <rect class="cls-2" x="214.47" y="202.98" width="7.66" height="7.66" transform="translate(436.6 413.62) rotate(-180)"/>
      <rect class="cls-2" x="206.81" y="172.34" width="7.66" height="30.63"/>
      <rect class="cls-2" x="191.49" y="202.98" width="7.66" height="7.66" transform="translate(390.64 413.62) rotate(-180)"/>
      <rect class="cls-2" x="183.83" y="195.32" width="7.66" height="7.66" transform="translate(375.32 398.3) rotate(-180)"/>
      <rect class="cls-2" x="237.44" y="248.94" width="7.66" height="7.66" transform="translate(482.55 505.54) rotate(-180)"/>
      <rect class="cls-2" x="229.78" y="225.96" width="7.66" height="22.98"/>
      <rect class="cls-2" x="260.42" y="248.94" width="7.66" height="7.66" transform="translate(528.5 505.54) rotate(-180)"/>
      <rect class="cls-2" x="252.76" y="233.62" width="7.66" height="15.33"/>
      <rect class="cls-2" x="283.4" y="118.73" width="7.66" height="7.67"/>
      <rect class="cls-2" x="298.72" y="141.71" width="7.66" height="7.66"/>
      <rect class="cls-2" x="306.37" y="180" width="7.67" height="7.66"/>
      <rect class="cls-2" x="314.04" y="187.66" width="7.66" height="7.66"/>
      <rect class="cls-2" x="0" y="187.66" width="7.66" height="7.66"/>
      <rect class="cls-2" x="30.65" y="248.94" width="7.66" height="7.66"/>
      <rect class="cls-2" x="38.3" y="233.62" width="7.66" height="15.33"/>
      <rect class="cls-2" x="45.96" y="218.3" width="7.66" height="7.66"/>
      <rect class="cls-2" x="99.57" y="202.98" width="7.66" height="7.66"/>
      <rect class="cls-2" x="107.24" y="172.34" width="7.66" height="30.63"/>
      <rect class="cls-2" x="122.55" y="202.98" width="7.66" height="7.66"/>
      <rect class="cls-2" x="130.21" y="195.32" width="7.66" height="7.66"/>
      <rect class="cls-2" x="84.25" y="225.96" width="7.67" height="22.98"/>
      <rect class="cls-2" x="76.6" y="248.94" width="7.67" height="7.66"/>
      <rect class="cls-2" x="53.62" y="248.94" width="7.66" height="7.66"/>
      <rect class="cls-2" x="61.29" y="233.62" width="7.66" height="15.33"/>
      <rect class="cls-2" x="30.65" y="118.73" width="7.66" height="7.67"/>
      <rect class="cls-2" x="15.32" y="141.71" width="7.66" height="7.66"/>
      <rect class="cls-2" x="7.66" y="180" width="7.66" height="7.66"/>
    </g>
    <g>
      <rect class="cls-1" x="153.19" y="65.11" width="0" height="7.67"/>
      <rect class="cls-1" x="68.94" y="80.43" width="7.66" height="0"/>
    </g>
  </g>
  <g>
    <rect class="cls-14" x="214.46" y="210.64" width="7.66" height="7.66" transform="translate(436.59 428.94) rotate(-180)"/>
    <rect class="cls-14" x="206.8" y="202.98" width="7.66" height="7.66" transform="translate(421.27 413.61) rotate(-180)"/>
    <rect class="cls-14" x="191.48" y="210.64" width="7.66" height="7.66" transform="translate(390.63 428.94) rotate(-180)"/>
    <rect class="cls-14" x="183.82" y="202.98" width="7.66" height="7.66" transform="translate(375.31 413.61) rotate(-180)"/>
    <rect class="cls-14" x="237.44" y="256.6" width="7.66" height="7.66" transform="translate(482.54 520.85) rotate(-180)"/>
    <rect class="cls-14" x="229.78" y="248.94" width="7.66" height="7.66" transform="translate(467.22 505.53) rotate(-180)"/>
    <rect class="cls-14" x="252.75" y="248.94" width="7.66" height="7.66" transform="translate(513.17 505.53) rotate(-180)"/>
    <rect class="cls-14" x="99.57" y="210.64" width="7.66" height="7.66"/>
    <rect class="cls-14" x="107.23" y="202.98" width="7.66" height="7.66"/>
    <rect class="cls-14" x="122.55" y="210.64" width="7.66" height="7.66"/>
    <rect class="cls-14" x="130.21" y="202.98" width="7.66" height="7.66"/>
    <rect class="cls-14" x="76.59" y="256.6" width="7.66" height="7.66"/>
    <rect class="cls-14" x="84.25" y="248.94" width="7.66" height="7.66"/>
    <rect class="cls-14" x="61.28" y="248.94" width="7.66" height="7.66"/>
  </g>
  <g>
    <rect class="cls-10" x="275.74" y="180" width="7.66" height="7.66" transform="translate(559.14 367.67) rotate(-180)"/>
    <rect class="cls-10" x="260.42" y="172.35" width="7.66" height="7.66" transform="translate(528.5 352.35) rotate(-180)"/>
    <rect class="cls-10" x="237.45" y="157.03" width="7.66" height="7.66"/>
    <rect class="cls-10" x="214.47" y="157.03" width="15.32" height="7.66"/>
    <polygon class="cls-10" points="275.74 256.6 275.74 271.93 260.42 271.93 260.42 264.27 268.08 264.27 268.08 256.6 275.74 256.6"/>
    <rect class="cls-10" x="260.42" y="202.98" width="7.66" height="7.66" transform="translate(528.5 413.63) rotate(-180)"/>
    <rect class="cls-10" x="245.1" y="271.93" width="15.32" height="7.66"/>
    <rect class="cls-10" x="206.81" y="279.58" width="30.63" height="7.66"/>
    <rect class="cls-10" x="283.4" y="218.3" width="7.66" height="7.66" transform="translate(574.46 444.27) rotate(-180)"/>
    <rect class="cls-10" x="283.4" y="233.62" width="7.66" height="7.66" transform="translate(574.46 474.91) rotate(-180)"/>
    <rect class="cls-10" x="275.74" y="195.33" width="22.98" height="7.66"/>
    <rect class="cls-10" x="137.87" y="149.37" width="45.96" height="7.67"/>
    <rect class="cls-10" x="191.49" y="149.37" width="7.66" height="7.66" transform="translate(390.64 306.4) rotate(-180)"/>
    <rect class="cls-10" x="38.31" y="180" width="7.66" height="7.66"/>
    <rect class="cls-10" x="53.63" y="172.35" width="7.66" height="7.66"/>
    <rect class="cls-10" x="91.91" y="157.03" width="15.32" height="7.66"/>
    <rect class="cls-10" x="76.6" y="157.03" width="7.66" height="7.66"/>
    <rect class="cls-10" x="53.63" y="202.98" width="7.66" height="7.66"/>
    <polygon class="cls-10" points="61.28 264.27 61.28 271.93 45.97 271.93 45.97 256.6 53.62 256.6 53.62 264.27 61.28 264.27"/>
    <rect class="cls-10" x="61.28" y="271.93" width="15.32" height="7.66"/>
    <rect class="cls-10" x="84.26" y="279.58" width="30.64" height="7.66"/>
    <rect class="cls-10" x="30.65" y="218.3" width="7.66" height="7.66"/>
    <rect class="cls-10" x="30.65" y="233.62" width="7.66" height="7.66"/>
    <rect class="cls-10" x="22.98" y="195.33" width="22.98" height="7.66"/>
    <rect class="cls-10" x="122.55" y="149.37" width="7.66" height="7.66"/>
  </g>
</svg>